<svg width="360" height="661" viewBox="0 0 360 661" fill="none" xmlns="http://www.w3.org/2000/svg">
<path fill-rule="evenodd" clip-rule="evenodd" d="M0 638.859V236.452C7.54426 237.225 14.9737 237.852 22.1122 238.079C68.0746 239.659 102.363 225.227 134.968 207.407C167.131 189.89 197.612 168.983 217.163 132.204C223.935 119.278 229.39 104.32 234.853 89.3405L234.853 89.3394C244.807 62.0475 254.787 34.6808 272.809 19.386C291.361 3.68774 329.712 0.516357 360 0.0638428V660.978C330.933 660.346 301.867 645.807 272.8 631.269L272.799 631.269C248.533 619.131 224.266 606.994 200 602.948C164.314 596.998 128.627 608.548 92.9412 620.098C67.9608 628.182 42.9804 636.267 18 638.349C11.9902 638.85 5.98035 639.004 0 638.859Z" fill="#00FFCB"/>
</svg>
